# xmcd CD database file
#
# Track frame offsets:
#	150
#	22469
#	47179
#	74899
#	94613
#	112201
#	133333
#	156989
#	177190
#	197792
#
# Disc length: 3019 seconds
#
# Revision: 0
# Processed by: cddbd v1.5.2PL0 Copyright (c) Steve Scherf et al.
# Submitted via: CDex 1.70beta2
#
DISCID=a20bc90a
DTITLE=Calabria Foti - A Lovely Way To Spend An Evening
DYEAR=2008
DGENRE=Jazz
TTITLE0=Love Me As Though There Were No Tomorow
TTITLE1=The Touch Of Your Lips
TTITLE2=Do It Again
TTITLE3=When Lights Are Low/Linger In My Arms
TTITLE4=All Of You
TTITLE5=I Am Woman(You Are Man)/You Fascinate Me So
TTITLE6=I Wanna Be Loved
TTITLE7=Close Your Eyse
TTITLE8=A Lovely Way To Spend An Evening
TTITLE9=For All We Know
EXTD=YEAR: 2008
EXTT0=
EXTT1=
EXTT2=
EXTT3=
EXTT4=
EXTT5=
EXTT6=
EXTT7=
EXTT8=
EXTT9=
PLAYORDER=
